<svg width="40" height="40" viewBox="0 0 40 40" fill="none" xmlns="http://www.w3.org/2000/svg">
<g clip-path="url(#clip0_9213_142732)">
<rect width="40" height="40" fill="white"/>
<rect width="40" height="40" rx="4" fill="#1D1D1B"/>
<rect width="40" height="40" rx="4" fill="#1D1D1B"/>
<mask id="mask0_9213_142732" style="mask-type:alpha" maskUnits="userSpaceOnUse" x="0" y="0" width="40" height="40">
<rect width="40" height="40" rx="4" fill="black" fill-opacity="0.5"/>
</mask>
<g mask="url(#mask0_9213_142732)">
<path d="M39.9922 39.9685C41.0798 39.9685 41.9614 39.0874 41.9614 38.0004C41.9614 36.9134 41.0798 36.0322 39.9922 36.0322C38.9046 36.0322 38.0229 36.9134 38.0229 38.0004C38.0229 39.0874 38.9046 39.9685 39.9922 39.9685Z" fill="white" fill-opacity="0.5"/>
<path d="M39.9923 30.1501C40.7145 30.1501 41.3 29.5649 41.3 28.8431C41.3 28.1213 40.7145 27.5361 39.9923 27.5361C39.27 27.5361 38.6846 28.1213 38.6846 28.8431C38.6846 29.5649 39.27 30.1501 39.9923 30.1501Z" fill="white" fill-opacity="0.5"/>
<path d="M39.9925 34.9324C40.8974 34.9324 41.6309 34.1992 41.6309 33.2948C41.6309 32.3904 40.8974 31.6572 39.9925 31.6572C39.0876 31.6572 38.354 32.3904 38.354 33.2948C38.354 34.1992 39.0876 34.9324 39.9925 34.9324Z" fill="white" fill-opacity="0.5"/>
<path d="M39.9922 25.3077C40.3533 25.3077 40.6461 25.015 40.6461 24.6538C40.6461 24.2927 40.3533 24 39.9922 24C39.6311 24 39.3384 24.2927 39.3384 24.6538C39.3384 25.015 39.6311 25.3077 39.9922 25.3077Z" fill="white" fill-opacity="0.5"/>
<path d="M30.8463 39.3073C31.5685 39.3073 32.154 38.7222 32.154 38.0003C32.154 37.2785 31.5685 36.6934 30.8463 36.6934C30.124 36.6934 29.5386 37.2785 29.5386 38.0003C29.5386 38.7222 30.124 39.3073 30.8463 39.3073Z" fill="white" fill-opacity="0.5"/>
<path d="M35.2999 34.6022C36.0221 34.6022 36.6076 34.0171 36.6076 33.2953C36.6076 32.5734 36.0221 31.9883 35.2999 31.9883C34.5777 31.9883 33.9922 32.5734 33.9922 33.2953C33.9922 34.0171 34.5777 34.6022 35.2999 34.6022Z" fill="white" fill-opacity="0.5"/>
<path d="M35.3001 39.6374C36.205 39.6374 36.9385 38.9043 36.9385 37.9999C36.9385 37.0955 36.205 36.3623 35.3001 36.3623C34.3952 36.3623 33.6616 37.0955 33.6616 37.9999C33.6616 38.9043 34.3952 39.6374 35.3001 39.6374Z" fill="white" fill-opacity="0.5"/>
<path d="M30.8459 34.2787C31.3897 34.2787 31.8306 33.8381 31.8306 33.2946C31.8306 32.7511 31.3897 32.3105 30.8459 32.3105C30.3022 32.3105 29.8613 32.7511 29.8613 33.2946C29.8613 33.8381 30.3022 34.2787 30.8459 34.2787Z" fill="white" fill-opacity="0.5"/>
<path d="M35.3 29.8275C35.8438 29.8275 36.2847 29.3869 36.2847 28.8434C36.2847 28.3 35.8438 27.8594 35.3 27.8594C34.7563 27.8594 34.3154 28.3 34.3154 28.8434C34.3154 29.3869 34.7563 29.8275 35.3 29.8275Z" fill="white" fill-opacity="0.5"/>
<path d="M26.6538 38.6544C27.015 38.6544 27.3077 38.3616 27.3077 38.0005C27.3077 37.6394 27.015 37.3467 26.6538 37.3467C26.2927 37.3467 26 37.6394 26 38.0005C26 38.3616 26.2927 38.6544 26.6538 38.6544Z" fill="white" fill-opacity="0.5"/>
<path d="M26.6538 33.9493C27.015 33.9493 27.3077 33.6566 27.3077 33.2954C27.3077 32.9343 27.015 32.6416 26.6538 32.6416C26.2927 32.6416 26 32.9343 26 33.2954C26 33.6566 26.2927 33.9493 26.6538 33.9493Z" fill="white" fill-opacity="0.5"/>
<path d="M30.8462 29.4976C31.2073 29.4976 31.5001 29.2049 31.5001 28.8438C31.5001 28.4827 31.2073 28.1899 30.8462 28.1899C30.4851 28.1899 30.1924 28.4827 30.1924 28.8438C30.1924 29.2049 30.4851 29.4976 30.8462 29.4976Z" fill="white" fill-opacity="0.5"/>
<path d="M35.2998 25.3077C35.6609 25.3077 35.9537 25.015 35.9537 24.6538C35.9537 24.2927 35.6609 24 35.2998 24C34.9387 24 34.646 24.2927 34.646 24.6538C34.646 25.015 34.9387 25.3077 35.2998 25.3077Z" fill="white" fill-opacity="0.5"/>
<path d="M1.99226 7.46356C2.71448 7.46356 3.29995 6.87841 3.29995 6.15659C3.29995 5.43476 2.71448 4.84961 1.99226 4.84961C1.27004 4.84961 0.68457 5.43476 0.68457 6.15659C0.68457 6.87841 1.27004 7.46356 1.99226 7.46356Z" fill="white" fill-opacity="0.5"/>
<path d="M1.99247 3.3425C2.89736 3.3425 3.63093 2.60934 3.63093 1.70494C3.63093 0.800543 2.89736 0.0673828 1.99247 0.0673828C1.08757 0.0673828 0.354004 0.800543 0.354004 1.70494C0.354004 2.60934 1.08757 3.3425 1.99247 3.3425Z" fill="white" fill-opacity="0.5"/>
<path d="M1.99223 11.0006C2.35334 11.0006 2.64607 10.7078 2.64607 10.3467C2.64607 9.98561 2.35334 9.69287 1.99223 9.69287C1.63112 9.69287 1.33838 9.98561 1.33838 10.3467C1.33838 10.7078 1.63112 11.0006 1.99223 11.0006Z" fill="white" fill-opacity="0.5"/>
<path d="M6.69978 3.01238C7.422 3.01238 8.00748 2.42723 8.00748 1.70541C8.00748 0.98359 7.422 0.398438 6.69978 0.398438C5.97756 0.398438 5.39209 0.98359 5.39209 1.70541C5.39209 2.42723 5.97756 3.01238 6.69978 3.01238Z" fill="white" fill-opacity="0.5"/>
<path d="M11.154 2.68885C11.6978 2.68885 12.1387 2.24827 12.1387 1.70478C12.1387 1.16129 11.6978 0.720703 11.154 0.720703C10.6103 0.720703 10.1694 1.16129 10.1694 1.70478C10.1694 2.24827 10.6103 2.68885 11.154 2.68885Z" fill="white" fill-opacity="0.5"/>
<path d="M6.69995 7.14051C7.24373 7.14051 7.68456 6.69993 7.68456 6.15644C7.68456 5.61295 7.24373 5.17236 6.69995 5.17236C6.15616 5.17236 5.71533 5.61295 5.71533 6.15644C5.71533 6.69993 6.15616 7.14051 6.69995 7.14051Z" fill="white" fill-opacity="0.5"/>
<path d="M15.3462 2.35945C15.7073 2.35945 16.0001 2.06671 16.0001 1.7056C16.0001 1.3445 15.7073 1.05176 15.3462 1.05176C14.9851 1.05176 14.6924 1.3445 14.6924 1.7056C14.6924 2.06671 14.9851 2.35945 15.3462 2.35945Z" fill="white" fill-opacity="0.5"/>
<path d="M11.1538 6.81062C11.515 6.81062 11.8077 6.51788 11.8077 6.15678C11.8077 5.79567 11.515 5.50293 11.1538 5.50293C10.7927 5.50293 10.5 5.79567 10.5 6.15678C10.5 6.51788 10.7927 6.81062 11.1538 6.81062Z" fill="white" fill-opacity="0.5"/>
<path d="M6.70023 11.0006C7.06134 11.0006 7.35408 10.7078 7.35408 10.3467C7.35408 9.98561 7.06134 9.69287 6.70023 9.69287C6.33912 9.69287 6.04639 9.98561 6.04639 10.3467C6.04639 10.7078 6.33912 11.0006 6.70023 11.0006Z" fill="white" fill-opacity="0.5"/>
</g>
<path fill-rule="evenodd" clip-rule="evenodd" d="M14.4818 27.4818L17.0745 24.8891L10.5927 18.4073L8 21L14.4818 27.4818Z" fill="#FAFAFA"/>
<path fill-rule="evenodd" clip-rule="evenodd" d="M17.0747 30.0747L32.631 14.5183L30.0383 11.9256L14.4819 27.4819L17.0747 30.0747Z" fill="#FAFAFA"/>
</g>
<defs>
<clipPath id="clip0_9213_142732">
<rect width="40" height="40" fill="white"/>
</clipPath>
</defs>
</svg>